<svg width="31" height="21" viewBox="0 0 31 21" xmlns="http://www.w3.org/2000/svg">
<path d="M30.3522 3.28579C29.9957 1.99243 28.9452 0.97382 27.6115 0.628141C25.194 0 15.5 0 15.5 0C15.5 0 5.80608 0 3.3885 0.628141C2.05475 0.973875 1.0043 1.99243 0.647775 3.28579C0 5.63008 0 10.5212 0 10.5212C0 10.5212 0 15.4124 0.647775 17.7566C1.0043 19.05 2.05475 20.0262 3.3885 20.3719C5.80608 21 15.5 21 15.5 21C15.5 21 25.1939 21 27.6115 20.3719C28.9452 20.0262 29.9957 19.05 30.3522 17.7566C31 15.4124 31 10.5212 31 10.5212C31 10.5212 31 5.63008 30.3522 3.28579ZM12.3295 14.962V6.08043L20.4318 10.5213L12.3295 14.962Z"/>
</svg>
